<?xml version="1.0" encoding="utf-8"?>
<!-- Generator: Adobe Illustrator 24.2.3, SVG Export Plug-In . SVG Version: 6.00 Build 0)  -->
<svg version="1.1" xmlns="http://www.w3.org/2000/svg" xmlns:xlink="http://www.w3.org/1999/xlink" x="0px" y="0px"
	 viewBox="0 0 1200 600" style="enable-background:new 0 0 1200 600;" xml:space="preserve">
<style type="text/css">
	.st0{fill:#1D1D1B;}
	.st1{font-family:'Roboto-Bold';}
	.st2{font-size:37.8258px;}
	.st3{letter-spacing:1.99;}
	.st4{font-family:'Roboto-Regular';}
	.st5{fill:#EF781F;}
	.st6{font-size:30px;}
	.st7{font-size:48px;}
	.st8{fill:none;}
	.st9{font-size:29.3149px;}
	.st10{font-size:29.2918px;}
	.st11{fill:none;stroke:#1D1D1B;stroke-miterlimit:10;stroke-dasharray:10,10;}
	.st12{fill:none;stroke:#1D1D1B;stroke-miterlimit:10;}
	.st13{fill:#939393;}
	.st14{fill:#DBDBDB;}
</style>
<g id="Titulo">
	<text transform="matrix(1.0039 0 0 1 463.7148 51.3589)" class="st0 st1 st2 st3">dimensiones</text>
	<text transform="matrix(1.0039 0 0 1 322.5 96.75)" class="st0 st4 st2">Similares a los gatos domésticos.</text>
</g>
<g id="Panda">
	<path class="st5" d="M826.67,459.37c-0.05-0.14-0.12-0.28-0.18-0.41c-0.58-1.15-1.48-2.09-2.16-3.18
		c-2.38-3.76-0.73-7.94-1.39-11.99c-0.75-4.59-4.2-8.46-7.76-11.24c-3.58-2.8-7.65-5.06-12.08-6.12c-2.09-0.51-4.22-0.59-6.34-0.46
		l-10.66-6.59c-0.68-0.42-1.54-0.44-2.22-0.03l-3.49,2.02c-0.77,0.45-1.19,1.32-1.04,2.2l0.93,5.6c-7.15,0.44-12.59-2.48-19.82-5.53
		c-9.07-3.82-18.79-6.1-28.63-6.67c-12.64-0.71-25.19,1.28-37.78,1.91c-7.09,0.36-14.07,0.12-21.09-1.08
		c-17.09-2.93-35.43-1.03-51.28,6.58c-15.73,7.55-32.69,21.88-32.69,40.68v1.15l0.05,0.01c0.59,7.05,6.53,12.59,13.79,12.59
		c4.88,0,9.16-2.51,11.62-6.29c0.17-0.27,0.34-0.53,0.49-0.81c6.22-11.17,10.99-22.85,24.09-27.45c7.29-2.56,21.83-3.35,27.35,3.55
		c5.63,7.03-1.53,19.57-3.4,26.82c-2.9,11.24-0.96,23.19,5.36,32.96c1.35,2.32,3.87,3.88,6.76,3.88h8.74c0-4.29-3.5-7.76-7.81-7.76
		c0,0-0.1,0-0.11,0c-1.21-0.01,4.51-8.74,5.09-9.51c1.86-2.49,3.79-4.81,5.24-7.59c0.66-1.26,4.84-9.23,4.02-10.3
		c3.07,3.99,3.15,11.04,5.26,15.69c2.63,5.83,9.74,19.47,17.27,19.47h18.48c0-4.29-3.5-7.76-7.81-7.76h-1.53l-6.67-4.55l4.94-21.52
		l18.65-5.38c-2.05,0.59-2.75,15.5-2.78,17.79c-0.07,5.7,1.13,10.99,2.78,16.39c0,2.77,2.26,5.02,5.06,5.02h8.16
		c0-3.09-1.83-5.77-4.46-7.01l10-18.51c1.49-2.75,5.41-2.9,7.1-0.27l14.09,21.92c1.35,2.32,3.87,3.88,6.76,3.88h18.75
		c0-4.29-3.5-7.76-7.81-7.76h-3.65l-4.17-16.9l4.44-11.31c2.03-5.17,7.05-8.58,12.65-8.59c3.77,0,9.41,1.09,12.76-0.72
		c0.85-0.46,1.56-1.14,2.43-1.53c1.83-0.81,4.34-0.42,5.52-2.02C827.17,461.69,827.1,460.44,826.67,459.37z"/>
</g>
<g id="textopanda">
	<text transform="matrix(1 0 0 1 635.6627 571.7895)" class="st5 st1 st6">Panda rojo</text>
</g>
<g id="_x33_3cm">
	<text transform="matrix(1 0 0 1 655.2313 386.4008)" class="st5 st1 st7">33 cm</text>
</g>
<g id="textogato">
	<g>
		<text transform="matrix(1 0 0 1 897.3257 571.7895)" class="st0 st4 st6">Gato</text>
	</g>
</g>
<g id="textooso">
	<g>
		<text transform="matrix(1 0 0 1 335.2191 571.7895)" class="st0 st4 st6">Oso panda</text>
	</g>
</g>
<g id="textocm">
	<g>
		<rect x="57.5" y="216" class="st8" width="71.67" height="42"/>
		<text transform="matrix(1.0147 0 0 1 87.4931 241.0773)" class="st0 st4 st9">cm </text>
	</g>
</g>
<g id="cero">
	<g>
		<rect x="105.15" y="494.11" class="st8" width="24.27" height="33.79"/>
		<text transform="matrix(1 0 0 1 112.5777 519.7896)" class="st0 st4 st6">0 </text>
	</g>
</g>
<g id="cuarenta">
	<g>
		<rect x="88.73" y="390.1" class="st8" width="41.12" height="33.79"/>
		<text transform="matrix(1 0 0 1 96.1518 415.7604)" class="st0 st4 st6">40 </text>
	</g>
</g>
<g id="ochenta">
	<g>
		<rect x="88" y="285.5" class="st8" width="40.66" height="32.99"/>
		<text transform="matrix(1.0128 0 0 1 95.3393 310.5627)" class="st0 st4 st10">80 </text>
	</g>
</g>
<g id="lineas">
	<g>
		<line class="st11" x1="155.62" y1="407.06" x2="1080.3" y2="407.06"/>
		<line class="st11" x1="155.62" y1="302.86" x2="1080.3" y2="302.86"/>
		<line class="st12" x1="155.62" y1="511.26" x2="1080.3" y2="511.26"/>
	</g>
</g>
<g id="gato">
	<path class="st13" d="M893.77,488.02c-1.82,0.78-3.38,1.47-4.96,2.12c-2.92,1.2-5.82,2.46-8.78,3.54
		c-2.16,0.79-4.47,1.22-6.59,2.08c-0.92,0.37-1.73,1.33-2.25,2.21c-0.75,1.27-1.23,2.71-1.73,4.1c-0.57,1.6-1.64,4.4-1.82,5.17
		c-0.31,1.23-0.61,2.51-1.19,3.62c-0.51,0.97-2.85,0.79-3.55-0.22c-1.1-1.58-1.45-3.39-1.39-5.29c0.03-0.84-0.08,0.34,0.08-0.49
		c0.54-2.76,1.07-5.52,1.82-8.22c0.85-3,1.93-5.95,2.93-8.91c0.11-0.33,0.19-0.79,0.44-0.94c1.92-1.11,2.94-2.99,4.23-4.67
		c0.7-0.9,1.67-1.61,2.42-2.47c1.58-1.78,2.42-3.88,2.62-6.27c0.17-1.96,0.54-3.91,0.76-5.87c0.09-0.77-0.06-1.58,0-2.35
		c0.08-1.07,0.12-2.18,0.44-3.19c0.73-2.34,1.11-4.82,2.62-6.87c0.68-0.91-0.22-4.08-1.46-4.9c-1.23-0.81-1.97-1.89-2.51-3.2
		c-0.18-0.43-0.65-0.72-0.96-1.1c-0.38-0.48-0.67-1.02-1.09-1.46c-0.7-0.72-1.4-1.47-2.21-2.03c-2.27-1.55-3.51-3.91-4.88-6.12
		c-1.2-1.94-2.16-4.07-2.87-6.24c-0.68-2.1-1.11-4.27-0.97-6.59c0.1-1.59-0.32-3.2,0.03-4.86c0.54-2.58,1.21-5.01,2.5-7.4
		c1.14-2.08,5.52-4.76,5.69-4.97c1.15-1.47,2.93-1.3,4.41-1.57c1.53-0.28,3.53-0.31,4.71,0.47c1.47,0.98,3.21,1.2,4.57,2.27
		c0.96,0.74,1.93,3.06,1.66,4.12c-0.4,1.48-1.05,1.95-2.53,1.63c-1.53-0.34-3.04-0.75-4.52-1.27c-2.03-0.72-4.05-0.03-5.4,1.55
		c-3.87,4.5-2.62,9.24-0.83,14c1.48,3.94,4.71,6.72,6.95,10.15c2.6,3.97,6.62,5.95,10.44,8.25c1.52,0.91,3.21,0.59,4.88,0.29
		c1.35-0.25,2.73-0.53,4.09-0.5c5.71,0.09,11.42,0.28,17.13,0.47c0.45,0.01,0.89,0.29,1.34,0.45c0.24,0.08,0.65,0.29,0.7,0.23
		c0.81-1.07,1.57-0.19,2.35,0.01c0.47,0.12,1,0.22,1.47,0.15c4.62-0.76,8.9,0.78,13.22,1.9c3.45,0.9,6.89,1.52,10.48,1.39
		c3.85-0.14,7.56,0.68,11.22,1.85c1.32,0.42,2.82,0.27,4.24,0.36c0.4,0.02,0.82-0.11,1.21-0.05c3.92,0.58,7.7-0.35,11.46-1.17
		c2.08-0.46,4.14-1.14,6.15-1.86c0.76-0.28,1.37-0.96,2.05-1.44c0.69-0.49,1.37-1,2.1-1.4c1.26-0.65,2.05-0.11,2.05,1.34
		c0,0.36,0,0.7,0,1.14c0.24-0.05,0.45-0.1,0.65-0.13c1.07-0.2,1.39,0.11,0.96,1.1c-0.59,1.35-0.34,2.34,0.87,3.2
		c0.91,0.65,1.72,1.45,2.56,2.18c1.41,1.22,2.24,2.68,2.52,4.58c0.2,1.34,0.79,2.65,1.39,3.89c1.33,2.73,1.02,3.01-0.79,5.1
		c-0.78,0.89-1.79,1.73-2.88,2.16c-1.05,0.42-2.46,0.66-3.47,0.31c-2.63-0.93-4.99-0.61-7.41,0.56c-1.83,0.89-3.77,1.56-5.62,2.41
		c-1.89,0.87-3.52,2.03-4.61,3.93c-2.79,2.75-1.69,5.54-0.35,9.95c0.2,0.66,1.14,1.2,1.59,1.88c1.73,2.61,3.36,5.28,5.12,7.87
		c0.98,1.44,2.09,2.79,3.25,4.09c0.29,0.33,0.95,0.33,1.43,0.52c0.94,0.38,1.99,0.61,2.74,1.23c0.51,0.43,0.93,1.52,0.73,2.07
		c-0.26,0.7-1.14,1.56-1.84,1.66c-1.72,0.24-3.5,0.2-5.23,0.06c-2.14-0.17-2.89-2.19-4.2-3.47c-0.18-0.17-0.19-0.53-0.37-0.66
		c-1.74-1.32-3.49-2.64-5.26-3.91c-1.72-1.22-3.49-2.35-5.21-3.58c-1.12-0.8-2.17-1.71-3.24-2.59c-2.25-1.87-4.49-3.77-6.75-5.62
		c-0.29-0.23-0.74-0.33-1.13-0.36c-1.67-0.14-3.11,0.7-4.25,1.63c-0.96,0.78-1.56,2.2-1.9,3.45c-0.78,2.75-1.28,5.56-1.93,8.34
		c-0.47,1.99,1.58,4.92,1.65,4.8c1.06,0.64,2.25,1.14,3.15,1.96c1.25,1.13,0.81,2.91-0.84,3.17c-2.05,0.33-4.2,0.42-6.27,0.24
		c-0.78-0.06-1.78-1-2.14-1.78c-2.39-5.19-4.02-10.62-4.67-16.33c-0.23-1.98-0.83-3.93-1.28-5.88c-0.33-1.43-1.43-1.79-2.7-1.75
		c-1.45,0.05-2.88,0.21-4.32,0.32c-0.09,0.01-0.2,0.03-0.27-0.01c-2.18-1.46-4.39-0.19-6.58-0.02c-0.32,0.02-0.63,0.22-0.94,0.35
		c-0.61,0.25-1.2,0.65-1.81,0.71c-1.47,0.13-2.96,0.05-4.44,0.16c-0.46,0.03-1.02,0.32-1.31,0.66c-0.36,0.43-0.46,1.05-0.72,1.57
		c-0.78,1.57-1.54,3.13-2.37,4.66c-0.94,1.71-2.29,3.27-2.12,5.36c0.06,0.7,0.38,1.52,0.85,2.04c1.41,1.56,2.91,3.03,4.45,4.46
		c0.3,0.29,0.95,0.43,1.37,0.33c1.59-0.38,2.88,0.17,3.93,1.23c0.42,0.42,0.74,1.29,0.58,1.8c-0.2,0.64-0.87,1.54-1.44,1.63
		c-2.21,0.33-4.46,0.5-6.69,0.46c-0.91-0.01-1.89-0.56-2.7-1.08c-2.88-1.84-5.57-3.89-7.57-6.76c-0.91-1.31-2.14-2.4-3.29-3.52
		c-1.03-1.01-1.35-2.13-1.34-3.59C894.3,493.48,893.98,490.97,893.77,488.02z"/>
</g>
<g id="oso">
	<path class="st14" d="M204.17,504.82c-1.36-1.35-1.95-3.28-1.55-5.13l13.31-72.16l10.45-48.18l2.95-10.91
		c0.35-1.29,1.14-2.41,2.25-3.17l86.65-59.81c0.91-0.63,1.98-0.98,3.09-1.02l133.02-4.21c0.73-0.02,1.45-0.19,2.13-0.48l13.66-5.96
		c0.73-0.32,1.51-0.48,2.31-0.48h10.11c0.86,0,1.71,0.19,2.48,0.56l21.75,10.34c0.4,0.19,0.83,0.34,1.27,0.43l10.49,2.25
		c0.58,0.12,1.18,0.16,1.77,0.1l13.89-1.35c1.84-0.18,3.65,0.53,4.87,1.91l1.96,2.22c2.33,2.64,6.51,2.57,8.74-0.15l4.61-5.6
		c1.09-1.32,2.72-2.09,4.44-2.09h0.72c3.16,0,5.71,2.53,5.71,5.64v10.91c0,2.01,1.08,3.86,2.84,4.87l13.4,7.71
		c1.11,0.64,1.97,1.63,2.44,2.81l8.74,21.88c0.33,0.83,0.85,1.56,1.52,2.15l16.38,14.35c2.17,1.9,2.55,5.09,0.9,7.44l-11.15,15.8
		c-0.27,0.39-0.59,0.74-0.96,1.05l-9.4,8.01c-1.13,0.97-2.6,1.45-4.1,1.36l-10.36-0.65c-0.68-0.04-1.35,0.03-2,0.23l-9.86,2.92
		c-0.53,0.16-1.08,0.24-1.64,0.24h-20.54c-1.44,0-2.82-0.54-3.88-1.5l-7.84-7.15c-3.18-2.9-8.34-1.39-9.4,2.75l-14.72,56.78
		c-0.74,2.85,0.86,5.78,3.68,6.73l20.77,7.04c1.4,0.47,2.56,1.47,3.23,2.77l6.36,12.25c0.41,0.8,0.63,1.68,0.63,2.57v6.64
		c0,2.42-1.56,4.57-3.89,5.34L511.87,511c-0.59,0.2-1.21,0.3-1.83,0.3H473.1c-1.22,0-2.41-0.39-3.39-1.1l-71.09-51.71
		c-1.46-1.06-2.33-2.75-2.33-4.54v-13.5c0-4.46-5-7.15-8.79-4.74l-33.76,21.38c-2.15,1.36-3.12,3.96-2.38,6.38l9,29.41
		c0.65,2.14,2.52,3.68,4.76,3.96l26.16,3.23c2.86,0.35,5.01,2.76,5.01,5.59l0,0c0,3.12-2.56,5.64-5.71,5.64h-71.54
		c-1.83,0-3.56-0.87-4.63-2.34l-32.16-43.93c-0.65-0.88-1.53-1.56-2.56-1.96l-8.94-3.44c-2.88-1.11-6.13,0.25-7.34,3.07l-7.39,17.25
		c-1.24,2.89,0.15,15.11,3.08,16.31l3.8,1.55c2.14,0.87,3.53,2.93,3.53,5.21v2.64c0,3.12-2.56,5.64-5.71,5.64h-47.69
		c-1.52,0-2.97-0.59-4.04-1.65L204.17,504.82z"/>
</g>
</svg>
