<?xml version="1.0" encoding="UTF-8"?>
<svg enable-background="new 0 0 1188.2 700.3" version="1.1" viewBox="0 0 1188.2 700.3" xml:space="preserve" xmlns="http://www.w3.org/2000/svg" xmlns:xlink="http://www.w3.org/1999/xlink">
<style type="text/css">
	.st0{fill:none;}
	.st1{fill:#1D1D1B;}
	.st2{font-family:'roboto';}
	.st3{font-size:30px;}
	.st4{fill:none;stroke:#1D1D1B;stroke-miterlimit:10;stroke-dasharray:1,1;}
</style>
<image transform="matrix(.336 0 0 .336 105.9 0)" width="2776" height="2084" enable-background="new" overflow="visible" xlink:href="D:\diplomado\Nueva carpeta\Nueva carpeta\1B24C8AE.jpeg">
</image>
<rect class="st0" x="913" y="240.5" width="222.7" height="35.6"/>
<text class="st1 st2 st3" transform="translate(913.98 259.29)">Glándulas odoríferas</text>
<rect class="st0" x="663.7" y="561" width="243.7" height="39.3"/>
<text class="st1 st2 st3" transform="translate(671.72 579.75)">Uñas semiretráctiles</text>
<path class="st4" d="m910.9 259.1c-3.6-0.3-16.4-1.2-26.9 7.4-10.9 8.9-15.4 24.7-11.4 40.5"/>
<polygon class="st1" points="867.4 307.1 874.8 313.8 877 304.1"/>
<path class="st4" d="m275.8 187.8c3.7-0.7 16.9-2.6 29.1 5.2 11.6 7.4 18.5 20.9 18.7 35.6"/>
<polygon class="st1" points="318.6 227 323.2 235.8 328.6 227.5"/>
<path class="st4" d="m255.3 565.4c1.8-0.3 19.2-3.9 26.7-20 5.5-11.8 3.6-26.2-4.6-37.3"/>
<polygon class="st1" points="282 506.1 272.6 502.8 274.5 512.6"/>
<path class="st4" d="m653.8 561c-2.4-0.6-20.7-5.3-29.5-23.6-6.9-14.3-3.6-28-0.6-35.8"/>
<polygon class="st1" points="627.8 505.1 626.9 495.2 618.7 500.9"/>
<rect class="st0" x="22" y="174.2" width="213.2" height="25.8"/>
<text class="st1 st2 st3" transform="translate(1.9999 189.96)">Patrón de 12 anillos </text>
<rect class="st0" x="29.4" y="555.5" width="218.5" height="36.8"/>
<text class="st1 st2 st3" transform="translate(12.372 579.27)">Pelaje abundante</text>
</svg>
