<?xml version="1.0" encoding="utf-8"?>
<!-- Generator: Adobe Illustrator 24.2.3, SVG Export Plug-In . SVG Version: 6.00 Build 0)  -->
<svg version="1.1" id="Capa_1" xmlns="http://www.w3.org/2000/svg" xmlns:xlink="http://www.w3.org/1999/xlink" x="0px" y="0px"
	 viewBox="0 0 600 600" style="enable-background:new 0 0 600 600;" xml:space="preserve">
<style type="text/css">
	.st0{fill:#F1F1F1;}
	.st1{fill:url(#SVGID_3_);}
	.st2{fill:#FFFFFF;}
	.st3{fill:url(#SVGID_4_);}
	.st4{fill:url(#SVGID_5_);}
	.st5{fill:#D8D8D8;}
	.st6{clip-path:url(#SVGID_7_);}
	.st7{fill:none;stroke:#1D1D1B;stroke-miterlimit:10;stroke-dasharray:10,10;}
	.st8{fill:#1D1D1B;}
	.st9{fill:url(#SVGID_10_);}
	.st10{fill:#6E6E6E;}
	.st11{fill:url(#SVGID_11_);}
	.st12{fill:#EBEBEB;}
	.st13{fill:url(#SVGID_12_);}
	.st14{fill:#E7E7E7;}
	.st15{fill:#939393;}
	.st16{fill:#3B3B3B;}
	.st17{clip-path:url(#SVGID_14_);}
	.st18{fill:none;}
	.st19{font-family:'Roboto-Bold';}
	.st20{font-size:38px;}
	.st21{letter-spacing:3;}
	.st22{font-family:'Roboto-Regular';}
	.st23{font-size:30px;}
	.st24{fill:none;stroke:#1D1D1B;stroke-miterlimit:10;}
	.st25{fill:#DBDBDB;}
	.st26{font-size:48px;}
	.st27{fill:#EF781F;}
	.st28{fill:none;stroke:#FFFFFF;stroke-miterlimit:10;}
</style>
<rect y="22.92" class="st18" width="600" height="76.72"/>
<text transform="matrix(1 0 0 1 124.3208 51.4215)"><tspan x="0" y="0" class="st8 st19 st20 st21">Peso y medidas</tspan><tspan x="355.16" y="0" class="st8 st22 st20"> </tspan><tspan x="9.52" y="45.6" class="st8 st22 st20">de un panda adulto:</tspan></text>
<g>
	<rect x="86.04" y="549.09" class="st18" width="187.29" height="30.91"/>
	<text transform="matrix(1 0 0 1 105.6934 571.5881)" class="st8 st22 st23">37 a 47 cm</text>
	<rect x="284.24" y="549.09" class="st18" width="229.72" height="30.91"/>
	<text transform="matrix(1 0 0 1 325.1123 571.5881)" class="st8 st22 st23">56 a 63 cm</text>
	<polyline class="st24" points="89.66,533.26 89.66,511.26 272.16,511.26 272.16,533.26 	"/>
	<polyline class="st24" points="284.24,533.26 284.24,511.26 513.96,511.26 513.96,537.55 	"/>
</g>
<path class="st25" d="M75.76,475.85L300,474.69l224.24,1.16v2.33c-37.37,8.18-74.75,12.46-112.12,15.37
	c-18.69,1.82-37.37,2.23-56.06,3.3c-18.69,0.65-37.37,0.71-56.06,1.09c-18.69-0.32-37.37-0.47-56.06-1.04
	c-18.69-1.1-37.37-1.45-56.06-3.29c-37.37-2.9-74.75-7.2-112.12-15.43V475.85z"/>
<path class="st15" d="M513.38,380.4c-0.1-0.25-0.21-0.49-0.33-0.73c-1.04-2.07-2.66-3.79-3.89-5.75c-4.29-6.82-1.31-14.37-2.5-21.71
	c-1.34-8.3-7.56-15.32-13.94-20.36c-6.43-5.07-13.75-9.16-21.72-11.07c-3.77-0.91-7.59-1.08-11.41-0.82l-19.18-11.93
	c-1.22-0.76-2.76-0.78-4-0.06l-6.27,3.66c-1.39,0.81-2.13,2.39-1.87,3.98l1.67,10.13c-12.85,0.79-22.63-4.48-35.63-10.01
	c-16.3-6.93-33.79-11.05-51.47-12.06c-22.71-1.3-45.29,2.32-67.93,3.46c-12.75,0.64-25.31,0.22-37.91-1.96
	c-30.72-5.31-63.7-1.86-92.19,11.91c-28.28,13.67-58.77,39.61-58.77,73.65v2.07l0.09,0.02c1.07,12.76,11.75,22.79,24.79,22.79
	c8.77,0,16.47-4.54,20.9-11.39c0.31-0.48,0.61-0.97,0.89-1.47c11.2-20.24,19.76-41.38,43.31-49.7c13.11-4.63,39.26-6.07,49.18,6.41
	c10.12,12.73-2.75,35.43-6.11,48.54c-5.22,20.36-1.72,41.98,9.64,59.66c2.43,4.2,6.97,7.02,12.16,7.02h15.72
	c0-7.76-6.29-14.05-14.05-14.05c0,0-0.18,0-0.19,0c-2.17-0.01,8.11-15.81,9.15-17.22c3.34-4.51,6.81-8.72,9.41-13.74
	c1.18-2.28,8.7-16.72,7.23-18.65c5.53,7.23,5.67,19.99,9.44,28.41c4.73,10.57,17.52,35.25,31.04,35.25h33.22
	c0-7.76-6.29-14.05-14.05-14.05h-2.75l-12-8.24l8.87-38.96c0,0,33.54-9.74,33.54-9.74c-3.69,1.07-4.95,28.07-5,32.2
	c-0.12,10.31,2.03,19.89,5,29.68c0,5.03,4.07,9.1,9.1,9.1h14.67c0-5.6-3.28-10.43-8.02-12.69l17.98-33.53
	c2.67-4.99,9.73-5.26,12.77-0.49l25.35,39.68c2.43,4.2,6.97,7.02,12.16,7.02h33.72c0-7.76-6.29-14.05-14.05-14.05h-6.56l-7.49-30.6
	l7.99-20.49c3.65-9.37,12.68-15.54,22.73-15.54c6.77,0,16.91,1.98,22.93-1.31c1.52-0.83,2.81-2.06,4.38-2.77
	c3.29-1.47,7.8-0.75,9.92-3.66C514.27,384.61,514.14,382.34,513.38,380.4z"/>
<g>
	<rect x="183" y="183.79" class="st18" width="234" height="41.21"/>
	<text transform="matrix(1 0 0 1 215.1447 219.7917)" class="st15 st19 st26">5 a 6 kg</text>
</g>
</svg>
